# xmcd CD database file
#
# Track frame offsets:
#	150
#	16582
#	39110
#	55542
#	89357
#
# Disc length: 4440 seconds
#
# Revision: 0
# Processed by: cddbd v1.5PL3 Copyright (c) Steve Scherf et al.
# Submitted via: CDex 1.51
#
DISCID=26115605
DTITLE=Lead - GET WILD LIFE
DYEAR=2003
DGENRE=JPop
TTITLE0=GET WILD LIFE
TTITLE1=Field of Soul
TTITLE2=GET WILD LIFE (Instrumental)
TTITLE3=Field of Soul (Instrumental)
TTITLE4=CCCD Data track
EXTD=YEAR: 2003
EXTT0=
EXTT1=
EXTT2=
EXTT3=
EXTT4=
PLAYORDER=
